<svg width="79" height="16" viewBox="0 0 79 16" fill="none" xmlns="http://www.w3.org/2000/svg">
<path d="M6.36839 7.09519L5.90915 8.4103H5.88045L5.40686 7.09519L1.89796 0.154099H0V12.6925H2.30338V5.50415H2.33209L2.82003 6.81568L5.86969 12.8466H5.9235L8.96957 6.81568L9.45751 5.48981H9.48622V12.6925H11.7896V0.154099H9.89164L6.36839 7.09519Z" fill="white"/>
<path d="M20.7879 2.93842L18.7679 8.36371L18.3876 9.81501H18.3589L17.9248 8.36371L15.6896 2.93842H13.196L17.2467 12.4596C16.852 13.5274 16.4323 13.789 15.973 13.789C15.5138 13.789 14.9684 13.6206 14.0894 13.0938V15.4267C14.8608 15.8602 15.4707 16 16.1883 16C17.5301 16 18.5742 14.9966 19.1303 13.5884L23.2778 2.93842H20.7879Z" fill="white"/>
<path d="M62.6362 0C58.9372 0 56.9854 2.7664 56.9854 6.49316C56.9854 10.2199 58.9372 12.8287 62.6362 12.8287C66.2815 12.8287 68.2871 10.2163 68.2871 6.49316C68.2871 2.7664 66.364 0 62.6362 0ZM62.6362 10.4815C60.3042 10.4815 59.3283 8.82597 59.3283 6.49316C59.3283 4.08152 60.3042 2.35073 62.6362 2.35073C64.9934 2.35073 65.9442 4.14244 65.9442 6.49316C65.9406 8.82597 64.9934 10.4815 62.6362 10.4815Z" fill="white"/>
<path d="M74.9138 2.78432C73.9666 2.78432 73.0302 3.17132 72.449 3.77333H72.4203V2.92406H70.1564V12.6781H72.4203V6.99125C72.4203 5.70839 73.2742 5.01321 74.5192 5.01321C76.1444 5.01321 76.4028 5.70839 76.4028 6.88376V12.6817H78.6523L78.6667 6.64007C78.6667 4.20693 77.1777 2.78432 74.9138 2.78432Z" fill="white"/>
<path d="M29.5027 7.57537H33.3094L33.0798 7.82262C32.9291 9.36708 31.7523 10.4959 30.0588 10.4959C27.6335 10.4959 26.5499 9.0589 26.5499 6.52184C26.5499 3.86294 27.6873 2.33281 30.1414 2.33281C31.3074 2.33281 32.3227 2.73416 33.0941 3.75543L34.68 1.93147C33.5534 0.602021 31.903 0 30.1414 0C26.4028 0 24.2071 2.61232 24.2071 6.52184C24.2071 10.3561 26.349 12.8287 30.0624 12.8287C31.3217 12.8287 32.6098 12.2876 33.2592 11.4992V12.6889H35.2504V5.23897H29.5027V7.57537Z" fill="#FFC107"/>
<path d="M41.6834 2.79863C40.2339 2.79863 38.9172 3.19997 37.7547 4.14241L39.1504 5.75138C39.9218 5.1637 40.8044 4.93077 41.6583 4.93077C42.6736 4.93077 43.3266 5.34645 43.3804 6.16706L43.61 6.4143C43.5275 6.39997 42.9176 6.39998 42.8494 6.39998C40.6824 6.39998 37.1448 6.69382 37.1448 9.64656C37.1448 12.1514 39.3262 12.8466 41.0053 12.8466C41.8735 12.8466 42.7526 12.6136 43.3912 12.137H43.4199V12.6925H45.6838V6.6329C45.6838 3.95966 43.9868 2.79863 41.6834 2.79863ZM43.4199 8.70412V9.63222C43.4199 10.6069 41.7802 10.7001 41.0878 10.7001C40.2052 10.7001 39.3943 10.3919 39.3943 9.67881C39.3943 9.1843 39.746 8.84387 40.5999 8.64319C41.0196 8.53569 41.4932 8.48911 41.9417 8.47477C42.4009 8.44252 42.7561 8.44252 43.1221 8.44252C43.1759 8.44252 43.5562 8.44253 43.6387 8.45686L43.4199 8.70412Z" fill="#FFC107"/>
<path d="M52.8236 6.9554C52.6334 6.89449 51.6324 6.58273 51.4566 6.53973C50.4126 6.24589 49.9533 6.0918 49.9533 5.69046C49.9533 5.41095 50.2511 4.91644 51.5248 4.91644C52.4469 4.91644 53.3259 5.33211 53.9358 6.01296L55.3458 4.42192C54.3699 3.33973 53.1106 2.79863 51.5104 2.79863C49.0851 2.79863 47.6751 4.03492 47.6751 5.71913C47.6751 7.49651 49.1783 8.17735 50.6422 8.59303C50.8323 8.63962 51.984 8.99438 52.1742 9.04096C53.1644 9.32047 53.2864 9.56772 53.2864 9.87589C53.2864 10.2307 52.9061 10.6965 51.6073 10.6965C50.6314 10.6965 49.5874 10.202 48.8698 9.3348L47.4203 11.0047C48.6796 12.241 50.0897 12.843 51.6468 12.843C54.291 12.843 55.5647 11.4204 55.5647 9.76839C55.5611 8.30277 54.6283 7.46783 52.8236 6.9554Z" fill="#FFC107"/>
</svg>
